<?xml version="1.0" encoding="UTF-8"?><svg id="Layer_1" xmlns="http://www.w3.org/2000/svg" xmlns:xlink="http://www.w3.org/1999/xlink" viewBox="0 0 1286 612"><defs><style>.cls-1{letter-spacing:0em;}.cls-2{fill:url(#linear-gradient);}.cls-2,.cls-3,.cls-4,.cls-5{stroke-width:0px;}.cls-3,.cls-6{fill:#000;}.cls-4{fill:url(#linear-gradient-2);}.cls-5{fill:url(#linear-gradient-3);}.cls-6{font-family:Ubuntu, Ubuntu;font-size:40.56px;}.cls-7{letter-spacing:-.01em;}</style><linearGradient id="linear-gradient" x1="298.44" y1="306" x2="1286" y2="306" gradientUnits="userSpaceOnUse"><stop offset="0" stop-color="#fff" stop-opacity=".3"/><stop offset="1" stop-color="#b0e6c1" stop-opacity=".25"/></linearGradient><linearGradient id="linear-gradient-2" x1="611.9" y1="-516.11" x2="-.35" y2="-1128.35" gradientTransform="translate(.41 -516.07) scale(1 -1)" gradientUnits="userSpaceOnUse"><stop offset="0" stop-color="#e44857"/><stop offset=".47" stop-color="#c711e1"/><stop offset="1" stop-color="#7f52ff"/></linearGradient><linearGradient id="linear-gradient-3" x1="504.26" y1="308.46" x2="1210.65" y2="308.46" gradientUnits="userSpaceOnUse"><stop offset="0" stop-color="#1d1d1d"/><stop offset="1" stop-color="#002a0b"/></linearGradient></defs><rect class="cls-2" x="298.44" width="987.56" height="612"/><path class="cls-3" d="M698.1,431.51c-2.98,0-5.74-.52-8.3-1.55-2.56-1.03-4.81-2.48-6.75-4.35s-3.46-4.03-4.55-6.49c-1.09-2.46-1.63-5.13-1.63-7.99s.54-5.52,1.63-7.99c1.09-2.46,2.58-4.63,4.49-6.49,1.91-1.86,4.15-3.31,6.73-4.35,2.58-1.03,5.33-1.55,8.27-1.55,3.32,0,6.45.65,9.39,1.95,2.94,1.3,5.36,3.11,7.27,5.45l-5.78,5.25c-1.37-1.69-3-2.97-4.87-3.84-1.87-.87-3.87-1.3-6.01-1.3-1.79,0-3.45.33-4.98.99-1.53.66-2.86,1.56-4.01,2.71-1.14,1.15-2.03,2.5-2.66,4.06-.63,1.56-.94,3.26-.94,5.11s.32,3.56.97,5.14c.65,1.58,1.55,2.94,2.72,4.09,1.16,1.15,2.52,2.05,4.06,2.71,1.55.66,3.23.99,5.07.99s3.63-.35,5.15-1.04c1.53-.7,2.81-1.67,3.86-2.94,1.05-1.26,1.75-2.68,2.09-4.26h-11.85v-7.11h20.72v2.48c0,2.94-.51,5.64-1.52,8.1-1.01,2.47-2.41,4.61-4.21,6.44-1.79,1.83-3.91,3.25-6.35,4.26-2.44,1.02-5.11,1.52-8.01,1.52Z"/><path class="cls-3" d="M735.54,431.45c-2.98,0-5.67-.68-8.07-2.03-2.4-1.35-4.31-3.18-5.72-5.48-1.41-2.29-2.12-4.87-2.12-7.73s.7-5.45,2.09-7.76c1.39-2.31,3.3-4.15,5.72-5.5,2.42-1.35,5.12-2.03,8.1-2.03s5.68.68,8.1,2.03c2.42,1.35,4.33,3.19,5.72,5.5,1.39,2.31,2.09,4.9,2.09,7.76s-.7,5.44-2.09,7.73c-1.39,2.3-3.29,4.12-5.7,5.48-2.4,1.35-5.11,2.03-8.13,2.03ZM735.54,424.74c1.56,0,2.97-.38,4.21-1.13,1.24-.75,2.23-1.78,2.98-3.08s1.12-2.74,1.12-4.32-.37-3.07-1.12-4.35c-.74-1.28-1.74-2.3-2.98-3.08-1.24-.77-2.64-1.16-4.21-1.16s-2.92.39-4.18,1.16c-1.26.77-2.25,1.8-2.98,3.08-.73,1.28-1.09,2.73-1.09,4.35s.36,3.02,1.09,4.32c.72,1.3,1.72,2.32,2.98,3.08,1.26.75,2.65,1.13,4.18,1.13Z"/><path class="cls-3" d="M762.78,431.4c-2.14,0-4.03-.39-5.67-1.16-1.64-.77-2.92-1.83-3.84-3.19s-1.37-2.92-1.37-4.68c0-2.82,1.08-5.01,3.23-6.58,2.16-1.56,5.12-2.34,8.9-2.34,2.59,0,5.04.4,7.33,1.19v-2.15c0-1.69-.53-2.97-1.6-3.84-1.07-.87-2.63-1.3-4.69-1.3-1.26,0-2.61.2-4.06.59-1.45.4-3.13,1.01-5.04,1.83l-2.86-5.7c2.37-1.05,4.63-1.84,6.78-2.37,2.16-.53,4.32-.79,6.5-.79,4.01,0,7.13.95,9.36,2.85,2.23,1.9,3.35,4.58,3.35,8.04v19.08l-6.4-.03-1.33-2.06c-1.22.9-2.54,1.56-3.95,1.98-1.41.41-2.96.62-4.64.62ZM759.34,422.2c0,1.13.5,2.02,1.49,2.68.99.66,2.31.99,3.95.99,1.3,0,2.5-.16,3.61-.48,1.11-.32,2.1-.8,2.98-1.44v-4.29c-.95-.38-1.95-.66-2.98-.85-1.03-.19-2.14-.28-3.32-.28-1.79,0-3.2.33-4.21.99-1.01.66-1.52,1.55-1.52,2.68Z"/><path class="cls-3" d="M795.64,431.34c-3.32,0-5.83-.74-7.53-2.23-1.7-1.49-2.55-3.66-2.55-6.52v-14.68h-6.13v-6.43h6.13v-7.51l7.84-2.66v10.17h8.53v6.43h-8.53v13.1c0,1.35.31,2.32.92,2.91.61.58,1.68.87,3.21.87.76,0,1.46-.05,2.09-.14.63-.09,1.33-.27,2.09-.54v6.38c-.8.26-1.79.47-2.98.62-1.18.15-2.21.23-3.09.23Z"/><path class="cls-3" d="M815.23,431.8c-.65,0-1.4-.03-2.26-.08-.86-.06-1.74-.13-2.63-.23-.9-.09-1.75-.21-2.55-.34-.8-.13-1.49-.27-2.06-.42v-37.65c.69-.19,1.45-.35,2.29-.48.84-.13,1.71-.24,2.6-.34.9-.09,1.77-.16,2.63-.2.86-.04,1.65-.06,2.38-.06,2.14,0,4.17.17,6.1.51,1.93.34,3.62.9,5.07,1.69,1.45.79,2.6,1.83,3.46,3.13.86,1.3,1.29,2.9,1.29,4.82,0,2.1-.54,3.9-1.63,5.38-1.09,1.48-2.55,2.51-4.38,3.07,1.14.26,2.19.64,3.15,1.13.95.49,1.79,1.12,2.52,1.89.72.77,1.29,1.71,1.69,2.83.4,1.11.6,2.44.6,3.98,0,3.69-1.49,6.51-4.47,8.45-2.98,1.94-7.58,2.91-13.8,2.91ZM809.62,409.39h7.56c1.41,0,2.75-.1,4.01-.31,1.26-.21,2.36-.58,3.29-1.12.93-.54,1.67-1.27,2.2-2.19.53-.92.8-2.09.8-3.51,0-1.27-.29-2.35-.86-3.23-.57-.88-1.38-1.6-2.43-2.16-1.05-.56-2.3-.96-3.75-1.21-1.45-.24-3.05-.37-4.81-.37-1.41,0-2.6.04-3.58.11-.97.08-1.78.17-2.43.28v13.72ZM809.62,412.67v15.47c.57.08,1.43.16,2.58.25,1.14.09,2.31.14,3.49.14,1.75,0,3.46-.11,5.12-.34,1.66-.23,3.12-.64,4.38-1.25,1.26-.6,2.27-1.43,3.03-2.49.76-1.06,1.14-2.42,1.14-4.08,0-1.51-.27-2.77-.8-3.77-.53-1-1.3-1.79-2.29-2.38-.99-.59-2.2-.99-3.64-1.22-1.43-.23-3.03-.34-4.78-.34h-8.24Z"/><path class="cls-3" d="M844.81,431.51c-1.24-2.3-2.45-4.69-3.62-7.18-1.17-2.48-2.26-4.99-3.28-7.53-1.02-2.54-1.94-5.08-2.79-7.62-.84-2.54-1.57-5.03-2.17-7.48h3.95c.42,1.81.95,3.75,1.6,5.84.65,2.09,1.38,4.24,2.2,6.46.82,2.22,1.72,4.5,2.71,6.83s2.07,4.63,3.24,6.88c.85-2.33,1.6-4.52,2.26-6.59.66-2.07,1.26-4.13,1.82-6.18.56-2.05,1.1-4.15,1.62-6.29.52-2.14,1.05-4.47,1.6-6.97h3.72c-1.24,5.46-2.64,10.77-4.19,15.93-1.55,5.16-3.24,9.88-5.08,14.15-.73,1.69-1.47,3.15-2.24,4.37-.77,1.22-1.62,2.23-2.56,3.02-.94.79-2.03,1.37-3.28,1.75-1.25.38-2.71.56-4.4.56-.96,0-1.83-.11-2.62-.34-.78-.23-1.27-.4-1.46-.51l.74-3.05c.15.11.58.27,1.29.48.71.21,1.44.31,2.21.31,1.07,0,2.04-.11,2.9-.34.86-.23,1.63-.61,2.32-1.16.69-.55,1.31-1.25,1.86-2.12.55-.87,1.09-1.96,1.6-3.27Z"/><path class="cls-3" d="M862.55,401.71h11.79v3.1h-11.79v15.52c0,1.66.14,3,.43,4.04.29,1.04.7,1.83,1.23,2.4.53.56,1.18.94,1.95,1.13.76.19,1.6.28,2.52.28,1.56,0,2.82-.18,3.78-.54.95-.36,1.7-.69,2.23-.99l.92,3.05c-.54.34-1.47.73-2.8,1.16-1.34.43-2.79.65-4.35.65-1.83,0-3.37-.24-4.61-.71-1.24-.47-2.23-1.19-2.98-2.15-.74-.96-1.27-2.15-1.57-3.58-.31-1.43-.46-3.12-.46-5.08v-26.87l3.72-.68v9.26Z"/><path class="cls-3" d="M875.21,416.27c0-2.56.37-4.79,1.12-6.69.74-1.9,1.72-3.49,2.92-4.77,1.2-1.28,2.58-2.23,4.12-2.85,1.55-.62,3.14-.93,4.78-.93,3.63,0,6.52,1.17,8.67,3.5,2.16,2.33,3.23,5.93,3.23,10.78,0,.3,0,.6-.03.9-.02.3-.05.58-.09.85h-20.78c.11,3.58,1.01,6.32,2.69,8.24,1.68,1.92,4.35,2.88,8.01,2.88,2.02,0,3.63-.19,4.81-.56,1.18-.38,2.04-.7,2.58-.96l.69,3.16c-.54.3-1.54.66-3.01,1.07-1.47.41-3.2.62-5.18.62-2.6,0-4.81-.38-6.64-1.13-1.83-.75-3.34-1.81-4.52-3.16-1.18-1.35-2.04-2.96-2.58-4.83-.54-1.86-.8-3.9-.8-6.12ZM896.22,413.96c-.08-3.05-.8-5.42-2.18-7.11-1.37-1.69-3.32-2.54-5.84-2.54-1.34,0-2.53.26-3.58.79-1.05.53-1.97,1.23-2.75,2.12-.78.88-1.39,1.91-1.83,3.08-.44,1.17-.7,2.39-.77,3.67h16.94Z"/><path class="cls-3" d="M909.61,428.29c2.14,0,3.9-.35,5.3-1.04,1.39-.7,2.09-1.87,2.09-3.53,0-.79-.12-1.47-.37-2.03s-.66-1.07-1.23-1.52c-.57-.45-1.33-.88-2.26-1.3-.94-.41-2.09-.9-3.46-1.47-1.11-.45-2.16-.91-3.15-1.38-.99-.47-1.87-1.02-2.63-1.64-.76-.62-1.37-1.36-1.83-2.23-.46-.87-.69-1.92-.69-3.16,0-2.37.91-4.29,2.72-5.76,1.81-1.47,4.3-2.2,7.47-2.2,2.02,0,3.69.17,5.01.51s2.24.64,2.78.9l-.86,3.27c-.46-.23-1.23-.53-2.32-.9-1.09-.38-2.68-.56-4.78-.56-.84,0-1.63.09-2.38.25-.74.17-1.4.43-1.98.79-.57.36-1.03.81-1.37,1.36-.34.55-.52,1.22-.52,2.01s.15,1.47.46,2.04c.3.57.75,1.07,1.35,1.5.59.43,1.32.84,2.18,1.21.86.37,1.84.79,2.95,1.24,1.15.45,2.24.91,3.29,1.38,1.05.47,1.97,1.03,2.78,1.69.8.66,1.45,1.45,1.95,2.37.5.92.74,2.08.74,3.47,0,2.63-1,4.63-3.01,5.98-2,1.35-4.74,2.03-8.22,2.03-2.6,0-4.58-.22-5.95-.65-1.37-.43-2.29-.76-2.75-.99l.97-3.33c.11.08.36.2.74.37.38.17.9.36,1.55.56.65.21,1.42.39,2.32.54.9.15,1.94.23,3.12.23Z"/><path class="cls-3" d="M925.47,431.23c-.8,0-1.49-.28-2.06-.85-.57-.56-.86-1.24-.86-2.03s.29-1.47.86-2.03c.57-.56,1.26-.85,2.06-.85s1.49.28,2.06.85c.57.56.86,1.24.86,2.03s-.29,1.47-.86,2.03c-.57.56-1.26.85-2.06.85Z"/><path class="cls-3" d="M932.68,430.89v-39.51h4.41v39.51h-4.41Z"/><path class="cls-3" d="M960.73,431.51c-2.9,0-5.6-.52-8.1-1.55-2.5-1.03-4.69-2.48-6.58-4.35-1.89-1.86-3.36-4.03-4.41-6.49-1.05-2.46-1.57-5.13-1.57-7.99s.52-5.52,1.57-7.99c1.05-2.46,2.52-4.63,4.41-6.49,1.89-1.86,4.08-3.31,6.58-4.35,2.5-1.03,5.2-1.55,8.1-1.55s5.54.52,8.04,1.55c2.5,1.04,4.69,2.48,6.58,4.35,1.89,1.86,3.36,4.03,4.41,6.49,1.05,2.47,1.57,5.13,1.57,7.99s-.52,5.52-1.57,7.99c-1.05,2.47-2.52,4.63-4.41,6.49-1.89,1.86-4.08,3.31-6.58,4.35-2.5,1.03-5.18,1.55-8.04,1.55ZM960.73,427.5c2.29,0,4.41-.41,6.35-1.24,1.95-.83,3.65-1.98,5.12-3.47,1.47-1.49,2.61-3.23,3.43-5.22.82-1.99,1.23-4.14,1.23-6.43s-.41-4.49-1.23-6.46c-.82-1.98-1.97-3.71-3.43-5.19-1.47-1.49-3.18-2.64-5.12-3.47-1.95-.83-4.06-1.24-6.35-1.24s-4.42.41-6.38,1.24c-1.97.83-3.68,1.99-5.15,3.47-1.47,1.49-2.61,3.22-3.43,5.19-.82,1.98-1.23,4.11-1.23,6.41s.41,4.5,1.23,6.49c.82,1.99,1.96,3.74,3.43,5.22,1.47,1.49,3.19,2.64,5.15,3.47,1.97.83,4.09,1.24,6.38,1.24Z"/><text class="cls-6" transform="translate(620.44 427.83)"><tspan class="cls-7" x="0" y="0">b</tspan><tspan class="cls-1" x="23.36" y="0">y</tspan></text><g id="Logotypes"><polygon class="cls-4" points="612.24 612 0 612 0 0 612.24 0 306.12 305.88 612.24 612"/></g><path class="cls-5" d="M504.26,367.26v-140l32.4-5v82.4l42.2-43.2h36.2l-47,47.8,50.2,58h-41l-40.6-47.4v47.4h-32.4ZM623.66,367.26v-105.8h32.4v6.8c7.47-5.87,16.27-8.8,26.4-8.8,6.67,0,12.67,1.27,18,3.8,5.33,2.53,9.8,6.13,13.4,10.8,4.27-4.67,9.33-8.27,15.2-10.8,5.87-2.53,12.27-3.8,19.2-3.8,8,0,15.07,1.8,21.2,5.4,6.13,3.6,10.97,8.6,14.5,15,3.53,6.4,5.3,13.8,5.3,22.2v65.2h-32.4v-60.8c0-5.87-1.57-10.53-4.7-14-3.13-3.47-7.3-5.2-12.5-5.2-3.6,0-6.87.67-9.8,2-2.93,1.33-5.47,3.33-7.6,6,.13,1.07.23,2.17.3,3.3.07,1.13.1,2.3.1,3.5v65.2h-32.4v-60.8c0-5.87-1.57-10.53-4.7-14-3.13-3.47-7.3-5.2-12.5-5.2-3.6,0-6.83.63-9.7,1.9-2.87,1.27-5.3,3.17-7.3,5.7v72.4h-32.4ZM808.46,367.26v-105.8h32.4v6.8c7.46-5.87,16.27-8.8,26.4-8.8,6.67,0,12.67,1.27,18,3.8,5.33,2.53,9.8,6.13,13.4,10.8,4.27-4.67,9.33-8.27,15.2-10.8,5.87-2.53,12.27-3.8,19.2-3.8,8,0,15.07,1.8,21.2,5.4,6.13,3.6,10.97,8.6,14.5,15,3.53,6.4,5.3,13.8,5.3,22.2v65.2h-32.4v-60.8c0-5.87-1.57-10.53-4.7-14-3.13-3.47-7.3-5.2-12.5-5.2-3.6,0-6.87.67-9.8,2-2.93,1.33-5.47,3.33-7.6,6,.13,1.07.23,2.17.3,3.3.07,1.13.1,2.3.1,3.5v65.2h-32.4v-60.8c0-5.87-1.57-10.53-4.7-14-3.13-3.47-7.3-5.2-12.5-5.2-3.6,0-6.83.63-9.7,1.9-2.87,1.27-5.3,3.17-7.3,5.7v72.4h-32.4ZM1008.46,244.46c-3.33,0-6.17-1.1-8.5-3.3-2.33-2.2-3.5-5.17-3.5-8.9s1.17-6.7,3.5-8.9c2.33-2.2,5.17-3.3,8.5-3.3s6.17,1.1,8.5,3.3c2.33,2.2,3.5,5.17,3.5,8.9s-1.17,6.7-3.5,8.9c-2.33,2.2-5.17,3.3-8.5,3.3ZM1017.86,367.26h-18.6v-104h18.6v104ZM1090.45,212.06c5.47,0,10.17.4,14.1,1.2,3.93.8,6.7,1.53,8.3,2.2l-3.4,16c-1.6-.8-3.87-1.57-6.8-2.3-2.93-.73-6.53-1.1-10.8-1.1-8.67,0-14.73,2.37-18.2,7.1-3.47,4.73-5.2,11.1-5.2,19.1v9h40v15.6h-40v88.4h-18.6v-113.4c0-13.33,3.27-23.63,9.8-30.9,6.53-7.27,16.8-10.9,30.8-10.9ZM1118.65,386.66c1.47.67,3.37,1.3,5.7,1.9,2.33.6,4.63.9,6.9.9,7.33,0,13.07-1.63,17.2-4.9,4.13-3.27,7.87-8.57,11.2-15.9-8.4-16-16.23-32.97-23.5-50.9-7.27-17.93-13.3-36.1-18.1-54.5h20c1.47,6,3.23,12.47,5.3,19.4,2.07,6.93,4.37,14.07,6.9,21.4,2.53,7.33,5.27,14.67,8.2,22,2.93,7.33,6,14.4,9.2,21.2,5.07-14,9.47-27.87,13.2-41.6,3.73-13.73,7.27-27.87,10.6-42.4h19.2c-4.8,19.6-10.13,38.43-16,56.5-5.87,18.07-12.2,34.97-19,50.7-2.67,6-5.43,11.17-8.3,15.5-2.87,4.33-6.03,7.9-9.5,10.7-3.47,2.8-7.37,4.87-11.7,6.2-4.33,1.33-9.23,2-14.7,2-1.47,0-3-.1-4.6-.3s-3.17-.47-4.7-.8c-1.53-.33-2.93-.7-4.2-1.1-1.27-.4-2.17-.73-2.7-1l3.4-15Z"/></svg>